<svg xmlns="http://www.w3.org/2000/svg" width="40" height="40" viewBox="0 0 40 40"><g transform="translate(-115 -332)"><circle cx="20" cy="20" r="20" transform="translate(115 332)" fill="#369457"/><g transform="translate(121.682 337.872)" fill="#fff"><path d="M 22.55497550964355 23.45835113525391 C 22.30588531494141 23.45835113525391 22.06631469726562 23.35558128356934 21.89767456054688 23.1763916015625 L 16.75160598754883 17.98186874389648 C 15.39181995391846 19.05869483947754 13.75766563415527 19.62732124328613 12.01963520050049 19.62732124328613 C 7.818154811859131 19.62732124328613 4.400004863739014 16.21137046813965 4.400004863739014 12.01260089874268 C 4.400004863739014 7.811120986938477 7.818154811859131 4.392971038818359 12.01963520050049 4.392971038818359 C 16.22111511230469 4.392971038818359 19.6392650604248 7.808920860290527 19.6392650604248 12.00769138336182 C 19.6392650604248 13.69534492492676 19.06740188598633 15.35470867156982 18.02716064453125 16.69068908691406 L 23.21049499511719 21.92255020141602 C 23.55463409423828 22.28885078430176 23.53969573974609 22.86539077758789 23.17903518676758 23.20967102050781 C 23.01350402832031 23.3698616027832 22.79169464111328 23.45835113525391 22.55497550964355 23.45835113525391 Z M 12.01963520050049 6.213790893554688 C 10.46903514862061 6.213790893554688 9.011494636535645 6.817380905151367 7.915494918823242 7.913381099700928 C 6.81944465637207 9.00459098815918 6.215914726257324 10.46033096313477 6.215914726257324 12.01260089874268 C 6.215914726257324 13.56003093719482 6.819504737854004 15.01583099365234 7.915494918823242 16.11182022094727 C 9.011494636535645 17.20782089233398 10.46903514862061 17.81141090393066 12.01963520050049 17.81141090393066 C 13.57022476196289 17.81141090393066 15.02776527404785 17.20782089233398 16.12376403808594 16.11182022094727 C 17.21981430053711 15.02059078216553 17.82335472106934 13.56485080718994 17.82335472106934 12.01260089874268 C 17.82335472106934 10.46517086029053 17.21976470947266 9.009370803833008 16.12376403808594 7.913381099700928 C 15.02776527404785 6.817380905151367 13.57022476196289 6.213790893554688 12.01963520050049 6.213790893554688 Z" stroke="none"/><path d="M 22.55497550964355 23.35835075378418 C 22.75634574890137 23.35835075378418 22.95772552490234 23.28468132019043 23.1099853515625 23.13733100891113 C 23.43414497375488 22.82790184020996 23.4439754486084 22.31710052490234 23.13945579528809 21.9929313659668 L 17.89388465881348 16.69825172424316 C 18.9204044342041 15.41141128540039 19.53926467895508 13.78077125549316 19.53926467895508 12.00769138336182 C 19.53926467895508 7.857400894165039 16.17483520507812 4.492970943450928 12.01963520050049 4.492970943450928 C 7.864434719085693 4.492970943450928 4.500004768371582 7.862310886383057 4.500004768371582 12.01260089874268 C 4.500004768371582 16.16289138793945 7.864434719085693 19.52732086181641 12.01963520050049 19.52732086181641 C 13.81727504730225 19.52732086181641 15.46265506744385 18.89864158630371 16.75931549072266 17.84756088256836 L 21.97049522399902 23.10786056518555 C 22.12766456604004 23.27486038208008 22.34377479553223 23.35835075378418 22.55497550964355 23.35835075378418 M 12.01963520050049 6.113790988922119 C 13.59624481201172 6.113790988922119 15.07954502105713 6.727741241455078 16.1944751739502 7.842670917510986 C 17.30940437316895 8.95759105682373 17.92335510253906 10.44089126586914 17.92335510253906 12.01260089874268 C 17.92335510253906 13.58922100067139 17.30940437316895 15.07251071929932 16.1944751739502 16.18253135681152 C 15.07954502105713 17.29746055603027 13.59624481201172 17.91141128540039 12.01963520050049 17.91141128540039 C 10.44301509857178 17.91141128540039 8.959714889526367 17.29746055603027 7.844784736633301 16.18253135681152 C 6.729855060577393 15.06760120391846 6.115914821624756 13.58430099487305 6.115914821624756 12.01260089874268 C 6.115914821624756 10.43598079681396 6.729855060577393 8.952681541442871 7.844784736633301 7.842670917510986 C 8.959714889526367 6.727741241455078 10.44301509857178 6.113790988922119 12.01963520050049 6.113790988922119 M 22.55497550964355 23.55835151672363 C 22.27938079833984 23.55835151672363 22.01414489746094 23.44490242004395 21.82678985595703 23.24698066711426 L 16.74318885803223 18.11546325683594 C 15.37976551055908 19.17059898376465 13.75049018859863 19.72732162475586 12.01963520050049 19.72732162475586 C 7.763014793395996 19.72732162475586 4.300004959106445 16.26651191711426 4.300004959106445 12.01260089874268 C 4.300004959106445 7.755980968475342 7.763014793395996 4.292971134185791 12.01963520050049 4.292971134185791 C 16.27625465393066 4.292971134185791 19.73926544189453 7.753781318664551 19.73926544189453 12.00769138336182 C 19.73926544189453 13.68821811676025 19.17949104309082 15.34117794036865 18.15971755981445 16.68240165710449 L 23.28153419494629 21.85217094421387 L 23.28340530395508 21.85406112670898 L 23.28522491455078 21.85600090026855 C 23.66497421264648 22.26025199890137 23.6483154296875 22.89995193481445 23.24808502197266 23.28200149536133 C 23.06429481506348 23.45987129211426 22.81779479980469 23.55835151672363 22.55497550964355 23.55835151672363 Z M 12.01963520050049 6.313791275024414 C 10.4957447052002 6.313791275024414 9.063314437866211 6.906980991363525 7.986205101013184 7.984091281890869 C 6.908994674682617 9.056550979614258 6.315914630889893 10.48713111877441 6.315914630889893 12.01260089874268 C 6.315914630889893 13.53332138061523 6.909104824066162 14.9640007019043 7.986205101013184 16.04111099243164 C 9.063314437866211 17.11822128295898 10.4957447052002 17.71141052246094 12.01963520050049 17.71141052246094 C 13.5435152053833 17.71141052246094 14.97594451904297 17.11822128295898 16.05305480957031 16.04111099243164 C 17.13027572631836 14.96863079071045 17.72335433959961 13.53806114196777 17.72335433959961 12.01260089874268 C 17.72335433959961 10.49188137054443 17.13016510009766 9.061191558837891 16.05305480957031 7.984091281890869 C 14.97594451904297 6.906980991363525 13.5435152053833 6.313791275024414 12.01963520050049 6.313791275024414 Z" stroke="none" fill="#fff"/></g></g></svg>